<?xml version="1.0" encoding="UTF-8"?>
<svg id="Calque_1" data-name="Calque 1" xmlns="http://www.w3.org/2000/svg" viewBox="0 0 500 500">
  <defs>
    <style>
      .cls-1 {
        fill: #475fff;
      }
    </style>
  </defs>
  <path class="cls-1" d="M167.98,381.22c-35.01-22.18-59.33-56.69-68.47-97.17-9.17-40.58-1.5-82.54,21.59-118.13,22.25-34.29,56.98-58.92,95.3-67.55,33.94-7.65,68.96-3.36,101.27,12.42,26.62,13,49.13,32.78,64.3,56.29l-14.58-3.78c-.08-.02-.16-.04-.24-.06h0s-.7-.18-.7-.18v.04c-4.6-.75-5.83,2.48-6.1,3.54-.6,2.31,.47,5.2,3.59,6.09h0s.06,.02,.13,.04c.01,0,.02,0,.03,0l.54,.14c3.77,.98,21.39,5.54,21.39,5.54,.85,.22,1.7,.33,2.54,.32,4.51,0,8.65-3.04,9.83-7.61,1.96-7.59,4.83-18.71,5.54-21.41h0c.03-.12,.06-.25,.09-.37,.03-.1,.05-.17,.06-.21h-.01c.92-4.9-3.08-6.08-3.56-6.2-1.07-.27-4.53-.76-6.08,3.71h-.03s-.1,.39-.1,.39c-.04,.14-.08,.28-.12,.43l-3.7,14.3c-16.16-25.1-40.13-46.19-68.44-60.01-34.38-16.78-71.68-21.34-107.86-13.18-40.84,9.21-77.83,35.4-101.49,71.87-24.57,37.87-32.72,82.54-22.96,125.77,9.73,43.08,35.61,79.81,72.88,103.41,26.73,16.93,57.02,25.66,87.87,25.66,12.16,0,24.41-1.36,36.57-4.1l-2.2-9.75c-40.37,9.12-81.87,1.93-116.88-20.25Z"/>
  <path class="cls-1" d="M354.75,363.28l6.98,7.16c2.31-2.25,4.58-4.6,6.75-6.98l-7.38-6.74c-2.04,2.24-4.18,4.44-6.35,6.56Z"/>
  <path class="cls-1" d="M377.8,335l8.41,5.41c1.74-2.7,3.43-5.49,5.02-8.29l-8.69-4.95c-1.5,2.64-3.1,5.28-4.74,7.82Z"/>
  <path class="cls-1" d="M403.48,230.45l9.95-1.02c-.33-3.22-.76-6.46-1.28-9.64l-9.87,1.62c.49,2.98,.89,6.02,1.2,9.04Z"/>
  <path class="cls-1" d="M394.1,302.32l9.38,3.46c1.12-3.02,2.16-6.11,3.1-9.19l-9.56-2.94c-.89,2.9-1.88,5.81-2.93,8.67Z"/>
  <path class="cls-1" d="M399.48,284.84l9.71,2.41c.78-3.13,1.48-6.32,2.08-9.47l-9.82-1.87c-.56,2.97-1.22,5.98-1.96,8.93Z"/>
  <path class="cls-1" d="M340.96,375.23l6.09,7.93c2.55-1.96,5.09-4.03,7.53-6.15l-6.55-7.56c-2.3,1.99-4.67,3.93-7.07,5.77Z"/>
  <path class="cls-1" d="M309.61,393.72l3.98,9.18c2.96-1.28,5.93-2.68,8.81-4.15l-4.54-8.91c-2.7,1.38-5.48,2.68-8.25,3.88Z"/>
  <path class="cls-1" d="M325.85,385.45l5.08,8.61c2.78-1.64,5.55-3.39,8.23-5.2l-5.6-8.28c-2.51,1.7-5.1,3.34-7.71,4.88Z"/>
  <path class="cls-1" d="M386.84,319.11l8.95,4.46c1.44-2.88,2.81-5.84,4.09-8.79l-9.18-3.96c-1.2,2.79-2.5,5.58-3.86,8.29Z"/>
  <path class="cls-1" d="M292.49,399.89l2.79,9.6c3.11-.9,6.23-1.92,9.26-3.01l-3.39-9.41c-2.83,1.02-5.75,1.97-8.66,2.82Z"/>
  <path class="cls-1" d="M392.02,186.55c1.2,2.76,2.34,5.61,3.37,8.46l9.4-3.41c-1.1-3.04-2.32-6.09-3.61-9.04l-9.17,4Z"/>
  <path class="cls-1" d="M402.89,266.88l9.91,1.31c.42-3.19,.76-6.44,1-9.65l-9.97-.75c-.23,3.02-.54,6.08-.94,9.09Z"/>
  <path class="cls-1" d="M400.53,212.47l9.75-2.22c-.72-3.15-1.54-6.32-2.45-9.42l-9.59,2.82c.85,2.9,1.62,5.87,2.29,8.82Z"/>
  <path class="cls-1" d="M414.12,239.13l-9.99,.42c.09,2.16,.14,4.35,.14,6.51,0,.87,0,1.74-.02,2.61l10,.17c.02-.92,.02-1.85,.02-2.78,0-2.3-.05-4.64-.15-6.93Z"/>
  <path class="cls-1" d="M367.07,349.8l7.75,6.32c2.03-2.5,4.02-5.08,5.91-7.69l-8.1-5.87c-1.78,2.46-3.66,4.9-5.57,7.25Z"/>
  <path class="cls-1" d="M351.07,252.39h.01s3.83-4.01,3.83-4.01l-3.27-3.16s-23.96-24.34-42.76-34.14l-.15-.08c-5.57-2.92-25.42-12.6-46.77-14.66-31.29-3.04-60.05,10.03-78.67,21.51-10.53,6.5-18.95,13.16-24.16,17.6-9.53,8.12-11.79,11.69-11.79,11.69,0,0,2.03,6.04,11.56,14.16,5.21,4.44,13.63,11.1,24.17,17.6,16.76,10.34,41.76,21.96,69.41,21.96,3.06,0,6.14-.14,9.26-.44,21.34-2.07,41.19-11.75,46.77-14.67l.14-.08c18.74-9.77,38.83-29.65,42.42-33.28Zm-161.34,18.86c-14.9-9-25.59-18.47-30.13-22.77,4.4-4.19,15.2-13.83,30.36-22.98,7.03-4.24,15.62-8.73,25.27-12.34-8.96,9.14-14.5,21.64-14.5,35.42s5.35,25.82,14.03,34.92c-9.55-3.6-18.06-8.04-25.03-12.25Zm61.63,17.95c-22.4,0-40.63-18.22-40.63-40.62s18.23-40.63,40.63-40.63,40.62,18.23,40.62,40.63-18.22,40.62-40.62,40.62Zm52.67-12.39l-.16,.08c-2.62,1.37-8.65,4.36-16.49,7.21,9.02-9.14,14.6-21.69,14.6-35.52s-5.9-27.09-15.38-36.29c8.34,2.96,14.76,6.14,17.49,7.57l.17,.08c14.38,7.5,29.89,21.68,36.76,28.33-6.75,6.54-22.44,20.95-36.99,28.54Z"/>
  <path class="cls-1" d="M255.83,250.38c-.27-.27-.53-.53-.8-.8-.13-7.63-.44-25.26-.46-26.45-.05-2.61-2.27-5.12-5-5-2.67,.12-5.05,2.2-5,5,.14,7.94,.28,15.88,.41,23.81,.03,1.44,.03,2.88,.08,4.32,.04,1.49,.42,2.83,1.47,3.97,.19,.2,.39,.39,.59,.59l9.06,9.06,8.24,8.24c1.85,1.85,5.24,1.99,7.07,0,1.83-2,1.98-5.09,0-7.07-5.22-5.22-10.44-10.44-15.66-15.66Z"/>
</svg>