<?xml version="1.0" encoding="utf-8"?>
<!-- Generator: Adobe Illustrator 27.0.0, SVG Export Plug-In . SVG Version: 6.00 Build 0)  -->
<svg version="1.1" id="Calque_1" xmlns="http://www.w3.org/2000/svg" xmlns:xlink="http://www.w3.org/1999/xlink" x="0px" y="0px"
	 viewBox="0 0 500 500" style="enable-background:new 0 0 500 500;" xml:space="preserve">
<style type="text/css">
	.st0{fill:none;stroke:#E7C1D4;stroke-width:10;stroke-miterlimit:10;}
	.st1{fill:#E7C1D4;}
</style>
<g>
	<path class="st0" d="M251.9,337.3c0-13.5,0,63.3,0,54"/>
	<path class="st0" d="M251.8,109.5c0-13.5,0,63.3,0,54"/>
	<path class="st0" d="M58.6,250c-13.5,0,63.3,0,54,0"/>
	<path class="st0" d="M388.2,250.3c-13.5,0,63.3,0,54,0"/>
	<path class="st1" d="M237.4,291.5C237.4,291.5,237.4,291.5,237.4,291.5L237.4,291.5C237.4,291.5,237.4,291.5,237.4,291.5z"/>
	<path class="st1" d="M277.4,208.9C277.4,208.9,277.4,208.9,277.4,208.9l-0.1,0.1C277.3,208.9,277.4,208.9,277.4,208.9
		C277.4,208.9,277.4,208.9,277.4,208.9z"/>
	<path class="st1" d="M353.1,246.7c-6-6.5-12.4-12.6-19-18.5c-5.9-5.3-12-10.5-18.2-15.4c-2.4-1.9-4.8-3.8-7.3-5.6l0,0v0
		c-4.6-3.2-9.4-6.3-14.7-8.2c-6-2.2-12.3-2.2-18.2,0c-5.5,2.1-10.5,5.2-15.8,7.8c-0.5,0.3-1.1,0.5-1.6,0.8c-0.1,0-0.2,0.1-0.3,0.1
		c0,0,0,0,0,0l0,0c0,0-0.1,0.1-0.2,0.1c0,0,0,0,0,0c0,0,0,0,0,0c0,0,0,0,0,0c0,0-0.1,0-0.1,0c0,0-0.1,0-0.1,0
		c-1.1,0.4-2.2,0.8-3.4,1c-0.1,0-0.1,0-0.2,0.1c0.1,0,0.1,0,0.2,0c0.3,0,0,0-0.3,0.1c-0.1,0-0.3,0.1-0.4,0.1c0.1,0,0.2,0,0.4-0.1
		c0.1,0,0.1,0,0.1,0c-0.1,0-0.1,0-0.2,0c-0.6,0.1-1.3,0-1.9,0c0,0-0.1,0-0.1,0c0.1,0,0.1,0,0.2,0c0,0,0.1,0,0.1,0
		c-0.2,0-0.6-0.1-0.6-0.1c0.1,0,0.1,0,0.2,0c-0.2,0-0.4-0.1-0.6-0.1c-0.8-0.2-1.5-0.4-2.3-0.6c-0.5-0.2-1-0.4-1.6-0.6c0,0,0,0,0,0
		c0,0-0.1-0.1-0.2-0.1c0,0,0.1,0,0.1,0c-0.1-0.1-0.2-0.1-0.3-0.1c-0.4-0.2-0.7-0.3-1.1-0.5c-1.2-0.6-2.4-1.3-3.5-2
		c-2.8-1.8-5.5-3.4-8.6-4.6c-3.1-1.3-6.3-1.9-9.6-2.3c-2.8-0.3-5.5-0.5-8.3-0.1c-3.5,0.4-6.5,1.5-9.4,3.6c-2.6,1.9-5.2,3.7-7.7,5.6
		c-5.3,3.9-10.6,7.9-15.8,11.9c-10.1,7.8-19.8,15.9-28.9,24.9c-1.1,1.1-2.2,2.2-3.3,3.3c-1.8,1.8-2.1,5.3,0,7.1c2.1,1.8,4,3.9,6,5.8
		c3.7,3.5,7.5,6.9,11.4,10.1c12,9.7,25,17.8,39.3,23.5c17.6,7.1,36.9,10.1,55.7,8.2c17-1.7,33.6-7.5,48.6-15.5
		c9.5-5,18.2-11.5,26.4-18.3c5-4.2,9.8-8.6,14.4-13.3c0.3-0.3,0.7-0.7,1-1C355.1,251.8,354.9,248.6,353.1,246.7L353.1,246.7z
		 M277.4,208.9C277.4,208.9,277.4,208.9,277.4,208.9l-0.1,0.1C277.3,208.9,277.4,208.9,277.4,208.9
		C277.4,208.9,277.4,208.9,277.4,208.9z M215.1,286.1c-1.9-0.7-3.9-1.4-5.8-2.2c-0.2-0.1-0.4-0.2-0.6-0.3c0,0,0,0,0,0c0,0,0,0-0.1,0
		c0,0,0,0,0,0c0,0,0,0-0.1,0c0,0,0,0-0.1,0l0,0l0,0c0,0-0.1,0-0.1,0c0,0-0.1,0-0.1-0.1c-0.2-0.1-0.5-0.2-0.6-0.3
		c-0.9-0.4-1.9-0.8-2.8-1.3c-3.6-1.6-7.1-3.5-10.5-5.4c-5.7-3.3-11.1-7-16.4-11c0,0,0,0,0,0c0,0,0,0,0,0c0,0,0,0,0,0c0,0,0,0,0,0
		c0,0-0.1,0-0.1-0.1c0,0,0,0,0,0c0,0,0,0,0,0c0,0,0,0,0,0c0,0,0,0,0,0c0,0,0,0,0,0c0,0,0,0,0,0c0,0-0.1,0-0.1-0.1c0,0,0,0-0.1,0
		c0,0,0,0-0.1,0s-0.1,0-0.1,0c0,0,0,0-0.1,0c0,0-0.1,0-0.1-0.1c0,0-0.1,0-0.1-0.1c-0.3-0.2-0.6-0.5-0.9-0.7
		c-0.6-0.5-1.2-0.9-1.8-1.4c-1.1-0.9-2.2-1.8-3.3-2.8c-1.9-1.6-3.7-3.3-5.5-4.9c-1.5-1.4-3-2.9-4.5-4.3c7.7-7.5,15.9-14.5,24.4-21.2
		c1.2-0.9,2.4-1.9,3.5-2.8c0,0,0.1-0.1,0.2-0.1c0,0,0.1-0.1,0.1-0.1c0,0,0.1-0.1,0.1-0.1c0.1,0,0.1-0.1,0.1-0.1
		c0.2-0.1,0.4-0.3,0.6-0.4c0.7-0.5,1.4-1.1,2.1-1.6c2.5-1.9,5-3.8,7.5-5.6c2.5-1.9,5-3.7,7.6-5.5c1.2-0.9,2.4-1.8,3.6-2.6
		c0.6-0.4,1.2-0.9,1.8-1.3c0.3-0.2,0.5-0.3,0.8-0.5c0.1,0,1-0.4,1.1-0.4c0.3-0.1,0.6-0.2,0.9-0.2c0.3-0.1,3.7-0.3,5.1-0.3
		c1.3,0.1,2.6,0.2,3.9,0.3c0,0,0.8,0.1,1.1,0.2c0.7,0.1,1.4,0.3,2,0.5c-1.9,0.3-3.6,0.9-5.3,1.8c-2.1,1.2-3.9,3.1-5.7,4.8
		c-3,3-5.7,6.5-7.8,10.2c-2.2,3.8-3.9,7.8-5.1,12c-1.2,4.3-1.8,8.8-1.8,13.2c0,14,5.7,26.7,14.9,35.9
		C216.1,286.4,215.6,286.3,215.1,286.1L215.1,286.1z M237.4,291.5L237.4,291.5C237.4,291.5,237.4,291.5,237.4,291.5
		C237.4,291.5,237.4,291.5,237.4,291.5z M252.7,292c-22.9,0-41.4-18.5-41.4-41.2c0-16.9,10.4-31.3,24.9-37.7
		c1.8,1.1,3.5,2.2,5.4,3.1c3.2,1.4,6.4,2.5,9.9,2.8c2.6,0.2,5.3-0.3,7.7-1.1c3.5-1.2,6.8-3,10-4.7c14.5,6.4,24.8,20.9,24.8,37.7
		C294,273.5,275.5,292,252.7,292z M335.5,256.7c-1.6,1.5-3.3,2.9-5,4.3c-0.8,0.7-1.7,1.4-2.5,2.1c-0.5,0.4-1,0.8-1.4,1.1
		c-0.5,0.4-1.3,0.8-1.7,1.3c0,0,0,0,0,0c0,0,0,0,0,0c-0.2,0.1-0.3,0.2-0.5,0.4c-0.5,0.4-1,0.8-1.5,1.2c-1,0.8-2.1,1.6-3.2,2.3
		c-2.2,1.5-4.4,3-6.7,4.5c-5.3,3.3-10.9,6.2-16.6,8.6c-0.2,0.1-0.5,0.2-0.8,0.3c-0.3,0.1-0.6,0.3-0.8,0.3c-1,0.4-2,0.8-3,1.2
		c-0.6,0.2-1.1,0.4-1.7,0.6c8.3-9,13.4-21,13.4-34.2c0-0.7,0-1.5,0-2.2c-0.1-3.1-0.6-6.2-1.3-9.2c-0.7-2.9-1.7-5.9-2.9-8.6
		c-1.2-2.7-2.7-5.4-4.3-7.9c-1.7-2.5-3.6-4.9-5.6-6.9c-2-2.1-4.1-4-6.6-5.3c-1.5-0.8-3.2-1.3-4.8-1.9c0,0,0,0,0,0
		c1.3-0.5,2.6-0.9,4-1.3c0.3-0.1,0.7-0.1,1-0.2h0c0.1,0,0.2,0,0.3,0c0.8-0.1,1.5-0.1,2.3,0c0.3,0,0.7,0,1,0.1c0,0-0.1,0-0.2,0
		c0.1,0,0.2,0,0.3,0c0,0-0.1,0-0.1,0c0.1,0,0.2,0,0.3,0.1c0.8,0.1,1.5,0.3,2.2,0.5s1.5,0.4,2.2,0.7c0.3,0.1,0.6,0.2,0.9,0.3
		c0,0,0.1,0,0.1,0l0.3,0.1c1.4,0.6,2.7,1.4,4,2.1c2.4,1.4,4.7,3,7,4.6c0,0,0.1,0.1,0.1,0.1c0.8,0.5,1.5,1.1,2.2,1.6
		c0.1,0.1,0.1,0.1,0.2,0.2c0,0,0,0,0,0c0,0,0,0,0.1,0.1c0,0,0,0,0,0c0,0,0,0,0.1,0h0c0,0,0,0,0.1,0.1l0,0c0,0,0.1,0.1,0.1,0.1
		s0.1,0.1,0.1,0.1c0.1,0.1,0.1,0.1,0.2,0.1c0.5,0.4,1,0.8,1.5,1.2c2.7,2.2,5.4,4.4,8.1,6.6c6.7,5.6,13.3,11.5,19.6,17.5
		c2.2,2.2,4.5,4.4,6.6,6.6C340.2,252.3,337.9,254.5,335.5,256.7L335.5,256.7z"/>
	<path class="st1" d="M237.4,291.5C237.4,291.5,237.4,291.5,237.4,291.5L237.4,291.5C237.4,291.5,237.4,291.5,237.4,291.5z"/>
	<path class="st1" d="M246.9,207.6c0,0-0.1-0.1-0.2-0.1c0,0,0.1,0,0.1,0C246.8,207.6,246.9,207.6,246.9,207.6
		C246.9,207.6,246.9,207.6,246.9,207.6C246.9,207.6,246.9,207.6,246.9,207.6z"/>
	<path class="st1" d="M251.8,209c-0.2,0-0.6-0.1-0.6-0.1c0.1,0,0.1,0,0.2,0c0.1,0,0.1,0,0.1,0C251.6,208.9,251.6,208.9,251.8,209
		C251.7,209,251.8,209,251.8,209L251.8,209z"/>
	<path class="st1" d="M253.6,208.9c0,0,0.1,0,0.1,0l0,0c0.1,0,0.1,0,0.2,0C254.2,208.9,253.9,208.9,253.6,208.9L253.6,208.9z"/>
	<path class="st1" d="M257.5,207.8c-0.1,0-0.1,0.1-0.2,0.1c0,0,0,0,0.1,0C257.4,207.8,257.4,207.8,257.5,207.8L257.5,207.8z"/>
	<path class="st1" d="M286.6,207.3c0,0-0.1,0-0.1,0s-0.1,0-0.2,0C286.4,207.2,286.5,207.2,286.6,207.3L286.6,207.3z"/>
</g>
<g id="picto_bleu">
	<path class="st1" d="M273.2,271c-5-5-9.9-9.9-14.9-14.9c-0.2-0.2-0.5-0.5-0.8-0.8c-0.1-7.2-0.2-14.5-0.4-21.7l-0.1-3.4
		c0-2.5-2.1-4.9-4.8-4.8c-2.5,0.1-4.8,2.1-4.8,4.8c0.1,7.5,0.3,15.1,0.4,22.6c0,1.4,0,2.7,0.1,4.1c0,1.4,0.4,2.7,1.4,3.8
		c0.2,0.2,0.4,0.4,0.6,0.6c2.9,2.9,5.7,5.7,8.6,8.6l7.8,7.8c1.8,1.8,5,1.9,6.7,0C274.9,275.9,275.1,272.9,273.2,271L273.2,271z"/>
</g>
</svg>
