<?xml version="1.0" encoding="UTF-8"?>
<svg id="Calque_1" data-name="Calque 1" xmlns="http://www.w3.org/2000/svg" viewBox="0 0 500 500">
  <defs>
    <style>
      .cls-1 {
        fill: #475fff;
      }

      .cls-2 {
        fill: none;
        stroke: #475fff;
        stroke-miterlimit: 10;
        stroke-width: 10px;
      }
    </style>
  </defs>
  <g id="picto_bleu" data-name="picto bleu">
    <path class="cls-2" d="M253.94,336.32c0-13.5,0,63.34,0,54.03"/>
    <path class="cls-2" d="M253.82,108.5c0-13.5,0,63.34,0,54.03"/>
    <path class="cls-2" d="M60.65,249.04c-13.5,0,63.34,0,54.03,0"/>
    <path class="cls-2" d="M390.23,249.32c-13.5,0,63.34,0,54.03,0"/>
    <path class="cls-1" d="M354.72,243.37s-23.63-23.47-42.43-33.27l-.15-.08c-5.57-2.92-25.42-12.6-46.77-14.66-31.29-3.04-60.05,10.03-78.67,21.51-10.53,6.5-18.95,13.16-24.16,17.6-9.53,8.12-11.79,11.69-11.79,11.69,0,0,2.03,6.04,11.56,14.16,5.21,4.44,13.63,11.1,24.17,17.6,16.76,10.34,41.76,21.96,69.41,21.96,3.06,0,6.14-.14,9.26-.44,21.34-2.07,41.19-11.75,46.77-14.67l.14-.08c18.74-9.77,38.83-29.65,42.42-33.28h.01s3.83-4.01,3.83-4.01l-3.6-4.03Zm-161.58,26.9c-14.9-9-25.59-18.47-30.13-22.77,4.4-4.19,15.2-13.83,30.36-22.98,7.03-4.24,15.62-8.73,25.27-12.34-8.96,9.14-14.5,21.64-14.5,35.42s5.35,25.82,14.03,34.92c-9.55-3.6-18.06-8.04-25.03-12.25Zm61.63,17.95c-22.4,0-40.63-18.22-40.63-40.62s18.23-40.63,40.63-40.63,40.62,18.23,40.62,40.63-18.22,40.62-40.62,40.62Zm52.67-12.39l-.16,.08c-2.62,1.37-8.65,4.36-16.49,7.21,9.02-9.14,14.6-21.69,14.6-35.52s-5.9-27.09-15.38-36.29c8.34,2.96,14.76,6.14,17.49,7.57l.17,.08c14.38,7.5,29.89,21.68,36.76,28.33-6.75,6.54-22.44,20.95-36.99,28.54Z"/>
    <path class="cls-1" d="M274.9,265.06c-5.22-5.22-10.44-10.44-15.66-15.66-.27-.27-.53-.53-.8-.8-.13-7.63-.27-15.26-.4-22.89l-.06-3.57c-.05-2.61-2.27-5.12-5-5-2.67,.12-5.05,2.2-5,5,.14,7.94,.28,15.88,.41,23.81,.03,1.44,.03,2.88,.08,4.32,.04,1.49,.42,2.83,1.47,3.97,.19,.2,.39,.39,.59,.59l9.06,9.06,8.24,8.24c1.85,1.85,5.24,1.99,7.07,0,1.83-2,1.98-5.09,0-7.07Z"/>
  </g>
</svg>