<?xml version="1.0" encoding="UTF-8"?>
<svg id="Calque_1" data-name="Calque 1" xmlns="http://www.w3.org/2000/svg" viewBox="0 0 500 500">
  <defs>
    <style>
      .cls-1 {
        fill: none;
        stroke: #475fff;
        stroke-miterlimit: 10;
        stroke-width: 10px;
      }
    </style>
  </defs>
  <path class="cls-1" d="M245.49,345.11c0-13.64,0,63.96,0,54.56"/>
  <path class="cls-1" d="M245.46,115.08c0-13.64,0,63.96,0,54.56"/>
  <path class="cls-1" d="M55.46,256.89c-13.64,0,63.96,0,54.56,0"/>
  <path class="cls-1" d="M381.69,256.69c-13.64,0,63.96,0,54.56,0"/>
  <path class="cls-1" d="M146.61,255.48c-6.2,6.22,47.26-52.65,109.63-46.62,22.99,2.22,44.06,13.47,46.01,14.49,21.94,11.44,45.87,37.07,41.95,32.94"/>
  <path class="cls-1" d="M146.38,258.29c-6.2-6.22,47.26,52.65,109.63,46.62,22.99-2.22,44.06-13.47,46.01-14.49,21.94-11.44,45.87-37.07,41.95-32.94"/>
  <circle class="cls-1" cx="245.91" cy="257.09" r="46.56"/>
  <path class="cls-1" d="M245.37,233.84c0-5.15,0,13.41,0,22.34,0,2.93,1.13,5.66,3.2,7.73,5.65,5.65,16.46,16.46,12.73,12.73"/>
</svg>