<?xml version="1.0" encoding="UTF-8"?>
<svg id="Calque_1" data-name="Calque 1" xmlns="http://www.w3.org/2000/svg" viewBox="0 0 500 500">
  <defs>
    <style>
      .cls-1 {
        fill: none;
        stroke: #e7c1d4;
        stroke-miterlimit: 10;
        stroke-width: 10px;
      }

      .cls-2 {
        fill: #e7c1d4;
      }

      .cls-3 {
        fill: #f7bcd5;
      }
    </style>
  </defs>
  <path class="cls-1" d="M239.44,321.08c0-14.01,0,65.69,0,56.03"/>
  <path class="cls-1" d="M239.32,84.81c0-14.01,0,65.69,0,56.03"/>
  <path class="cls-1" d="M38.99,230.57c-14.01,0,65.69,0,56.03,0"/>
  <path class="cls-1" d="M380.78,230.86c-14.01,0,65.69,0,56.03,0"/>
  <path class="cls-1" d="M239.47,209.4c0-5.29,0,13.77,0,22.95,0,3.01,1.16,5.82,3.29,7.94,5.8,5.8,16.9,16.9,13.07,13.07"/>
  <path class="cls-1" d="M137.66,231.29c-6.36-6.39,48.53,54.07,112.58,47.87,23.61-2.28,45.24-13.84,47.25-14.88,22.53-11.74,47.1-38.07,43.08-33.82"/>
  <g>
    <path class="cls-2" d="M292.98,231.32c0,18.66-9.78,35.05-24.49,44.34-8.2,5.23-17.87,8.29-28.24,8.29s-20.44-3.16-28.73-8.49c-14.52-9.38-24.09-25.67-24.09-44.14,0-16.89,8.1-31.8,20.54-41.37.3-.3.59-.59.89-.79.4-.1.69-.2,1.09-.3,2.17-.49,4.34-.99,6.71-1.38,4.15-.69,8.2.3,11.45,2.37.3.1.49.2.69.39-.1,0-.3.1-.39.1s-.2.1-.3.1c-17.67,5.23-30.81,21.53-30.81,40.88,0,23.6,19.26,42.76,42.95,42.76s42.86-19.16,42.86-42.76c0-19.85-13.73-36.54-32.09-41.37-.1,0-.2,0-.3-.1-.2,0-.3-.1-.49-.1.1,0,.1-.1.2-.1,2.67-2.07,6.32-3.75,10.66-3.06,3.26.59,6.22,1.28,9.18,2.17.39.1.69.2,1.09.3.3.2.59.39.79.69,12.64,9.58,20.83,24.59,20.83,41.57Z"/>
    <path class="cls-3" d="M228.79,190.24c-.1,0-.3.1-.39.1s-.2.1-.3.1c-.39-.2-.89-.3-1.28-.3.2-.1.49-.2.89-.2.1-.1.2-.1.39-.1.3.1.49.2.69.39Z"/>
    <path class="cls-3" d="M209.93,188.86c-.4.3-.69.49-1.09.79-.3.1-.59.2-.89.3.3-.3.59-.59.89-.79.4-.1.69-.2,1.09-.3Z"/>
    <path class="cls-2" d="M345.71,230.13l-1.3,1.8-5.02,3.63-1.98-2.07-.69-.79c-2.76-3.16-20.74-21.62-38.61-30.91-.3-.2-.79-.49-1.58-.99-3.36-2.07-12.15-7.5-24.39-11.06-.2-.3-.49-.49-.79-.69-.39-.1-.69-.2-1.09-.3-2.96-.89-5.93-1.58-9.18-2.17-4.34-.69-8,.99-10.66,3.06-.1,0-.1.1-.2.1.2,0,.3.1.49.1-.2.2-.3.3-.49.39-1.68.89-2.96,2.57-3.55,3.36-.2.2-.3.2-.49.39-1.68,2.07-3.95,3.26-6.62,3.36-2.67.1-5.63-1.19-7.41-3.46-.69-.89-2.37-2.67-4.05-3.46.1,0,.2-.1.3-.1s.3-.1.39-.1c-.2-.2-.39-.3-.69-.39-3.26-2.07-7.31-3.06-11.45-2.37-2.37.39-4.54.89-6.71,1.38-.4.1-.69.2-1.09.3-.3.2-.59.49-.89.79-13.43,3.65-23.21,9.58-26.76,11.75-.69.49-1.18.79-1.48.89-17.97,9.38-35.94,27.85-38.71,31.01h-.1l-.1.1-.59.2-4.94,1.48-3.26-4.34c0-.89.59-2.17,1.78-3.75,6.42-8.79,28.83-26.86,41.27-33.38l.89-.59c12.64-7.8,25.87-12.94,39.1-15.11,5.13-.89,10.27-.1,14.81,1.88,3.65,1.58,6.81,3.95,9.48,7.11,2.67-3.16,5.73-5.63,9.08-7.31,4.54-2.37,9.38-3.36,14.32-2.57,19.85,3.26,34.26,12.24,39,15.11l.89.59c12.34,6.42,34.55,24.15,41.26,33.04.1.1-.09.24.01.33,1.18,1.58,1.88,2.96,1.78,3.75Z"/>
    <path class="cls-3" d="M228.79,190.24c-.1,0-.3.1-.39.1-.2-.1-.49-.3-.69-.39-3.26-1.88-7.11-2.67-11.06-1.98-2.77.39-5.33.99-7.8,1.68.4-.3.69-.49,1.09-.79,2.17-.49,4.34-.99,6.71-1.38,4.15-.69,8.2.3,11.45,2.37.3.1.49.2.69.39Z"/>
    <path class="cls-3" d="M251.5,189.74c-.2,0-.3.1-.49.2-.3.1-.49.2-.79.3.2-.1.3-.2.49-.39-.2,0-.3-.1-.49-.1.1,0,.1-.1.2-.1.2-.1.39,0,.59,0s.3.1.49.1Z"/>
    <path class="cls-3" d="M271.35,189.05c-.39-.1-.69-.2-1.09-.3.39.2.69.4,1.09.69.3.1.59.2.79.3-.2-.3-.49-.49-.79-.69Z"/>
    <path class="cls-3" d="M271.35,189.45c-3.26-.99-6.62-1.78-10.27-2.37-4.05-.69-7.5.79-10.07,2.57-.1.1-.2.2-.3.2-.2,0-.3-.1-.49-.1.1,0,.1-.1.2-.1,2.67-2.07,6.32-3.75,10.66-3.06,3.26.59,6.22,1.28,9.18,2.17.39.2.69.4,1.09.69Z"/>
  </g>
</svg>